<svg width="200" height="200" viewBox="0 0 200 200" fill="none" xmlns="http://www.w3.org/2000/svg">
<g opacity="0.8">
<path d="M19.3079 1.79315C22.2822 0.996195 25.0038 3.71785 24.2069 6.69213L20.8265 19.3079C20.0295 22.2821 16.3117 23.2783 14.1343 21.101L4.89898 11.8657C2.72166 9.68834 3.71785 5.97048 6.69213 5.17353L19.3079 1.79315Z" fill="#13D726"/>
<circle cx="4.5" cy="59.5" r="4.5" fill="#78B4FD"/>
<path opacity="0.4" d="M132.481 65.4229L132.828 65.0621L132.482 65.4229C135.95 68.7498 136.064 74.2589 132.737 77.7273L78.4427 134.322C78.4427 134.322 78.4427 134.322 78.4427 134.322C76.7334 136.103 74.4499 137 72.1616 137C69.994 137 67.8254 136.196 66.1383 134.578L66.1383 134.578C62.67 131.251 62.5559 125.742 65.8829 122.273C65.8829 122.273 65.8829 122.273 65.8829 122.273L120.177 65.6783L120.177 65.6783C123.505 62.2091 129.013 62.0955 132.481 65.4229ZM74.003 63.0001C80.0798 63.0001 85.006 67.9264 85.006 74.0032C85.006 80.08 80.0798 85.0062 74.003 85.0062C67.9263 85.0062 63 80.08 63 74.0032C63 67.9264 67.9263 63.0001 74.003 63.0001ZM124.156 137C118.079 137 113.153 132.074 113.153 125.997C113.153 119.92 118.079 114.994 124.156 114.994C130.233 114.994 135.159 119.92 135.159 125.997C135.159 132.074 130.233 137 124.156 137Z" stroke="white"/>
<path d="M58.6539 52.8966C60.1411 52.4981 61.5019 53.8589 61.1034 55.3461L60.2171 58.6539C59.8186 60.1411 57.9597 60.6392 56.871 59.5505L54.4495 57.129C53.3608 56.0403 53.8589 54.1814 55.3461 53.7829L58.6539 52.8966Z" fill="#FFC2A0"/>
</g>
</svg>
