<svg width="206" height="246" viewBox="0 0 206 246" fill="none" xmlns="http://www.w3.org/2000/svg">
<g opacity="0.8">
<g opacity="0.4">
<path d="M127.701 124.486V163.428C127.701 167.103 124.5 170.139 120.479 170.139C116.457 170.139 113.257 167.103 113.257 163.428V124.486C113.257 120.81 116.457 117.774 120.479 117.774C124.5 117.774 127.701 120.81 127.701 124.486ZM155.5 146.12V163.428C155.5 167.103 152.299 170.139 148.278 170.139C144.257 170.139 141.056 167.103 141.056 163.428V146.12C141.056 142.445 144.257 139.409 148.278 139.409C152.299 139.409 155.5 142.445 155.5 146.12ZM70.944 135.663V163.788C70.944 167.464 67.7435 170.5 63.722 170.5C59.7005 170.5 56.5 167.464 56.5 163.788V135.663C56.5 131.988 59.7005 128.952 63.722 128.952C67.7435 128.952 70.944 131.988 70.944 135.663ZM99.5154 103.212V163.788C99.5154 167.464 96.3149 170.5 92.2934 170.5C88.2719 170.5 85.0714 167.464 85.0714 163.788V103.212C85.0714 99.5364 88.2719 96.5 92.2934 96.5C96.3149 96.5 99.5154 99.5364 99.5154 103.212Z" stroke="white"/>
</g>
<g filter="url(#filter0_d_1_71)">
<path d="M66.5685 62.5685C61.9933 67.1438 54.5753 67.1438 50 62.5685L66.5685 46C71.1438 50.5753 71.1438 57.9933 66.5685 62.5685Z" fill="#FFC2A0"/>
</g>
<circle cx="10.5" cy="50.5" r="4.5" fill="#78B4FD"/>
<circle cx="65.5" cy="97.5" r="4.5" fill="#07E31D"/>
</g>
<defs>
<filter id="filter0_d_1_71" x="0" y="0" width="120" height="120" filterUnits="userSpaceOnUse" color-interpolation-filters="sRGB">
<feFlood flood-opacity="0" result="BackgroundImageFix"/>
<feColorMatrix in="SourceAlpha" type="matrix" values="0 0 0 0 0 0 0 0 0 0 0 0 0 0 0 0 0 0 127 0" result="hardAlpha"/>
<feOffset dy="4"/>
<feGaussianBlur stdDeviation="25"/>
<feColorMatrix type="matrix" values="0 0 0 0 0 0 0 0 0 0 0 0 0 0 0 0 0 0 0.25 0"/>
<feBlend mode="normal" in2="BackgroundImageFix" result="effect1_dropShadow_1_71"/>
<feBlend mode="normal" in="SourceGraphic" in2="effect1_dropShadow_1_71" result="shape"/>
</filter>
</defs>
</svg>
