<svg width="153" height="186" viewBox="0 0 153 186" fill="none" xmlns="http://www.w3.org/2000/svg">
<g opacity="0.8">
<g filter="url(#filter0_d_1_90)">
<path d="M66.5685 62.5685C61.9933 67.1438 54.5753 67.1438 50 62.5685L66.5685 46C71.1438 50.5753 71.1438 57.9933 66.5685 62.5685Z" fill="#FFC2A0"/>
</g>
<g opacity="0.4">
<path d="M61.7569 90.3234L61.7567 90.3233C60.5221 90.076 59.2447 90.4631 58.3538 91.354C58.3538 91.354 58.3538 91.354 58.3537 91.354M61.7569 90.3234L58.3537 91.354M61.7569 90.3234L73.8497 92.7405C79.7496 93.9199 85.1164 96.7914 89.371 101.046L89.7246 100.693L89.371 101.046L104.333 116.008C110.212 121.887 110.212 131.454 104.333 137.333C101.484 140.182 97.6993 141.75 93.6706 141.75C89.6418 141.75 85.8567 140.182 83.0079 137.333L68.0457 122.371C68.0457 122.371 68.0457 122.371 68.0457 122.371C63.7913 118.117 60.9196 112.75 59.7402 106.85L57.3231 94.7574C57.3231 94.7573 57.3231 94.7573 57.3231 94.7573M61.7569 90.3234L57.3231 94.7573M58.3537 91.354C57.4629 92.245 57.0763 93.5219 57.3231 94.7573M58.3537 91.354L57.3231 94.7573M72.3726 100.131L72.3726 100.131L66.5566 98.9686L65.8214 98.8216L65.9683 99.5569L67.1308 105.373L67.6211 105.275L67.1308 105.373C68.0172 109.808 70.1768 113.844 73.375 117.042L73.375 117.042L88.3372 132.004C88.3372 132.004 88.3372 132.004 88.3372 132.004C89.761 133.428 91.6569 134.213 93.6706 134.213C95.6842 134.213 97.5801 133.428 99.0039 132.004C101.945 129.063 101.945 124.278 99.0039 121.337L84.0417 106.375C84.0417 106.375 84.0417 106.375 84.0417 106.375C80.8434 103.177 76.8079 101.017 72.3726 100.131Z" stroke="white"/>
</g>
<circle cx="17.5" cy="50.5" r="4.5" fill="#78B4FD"/>
<circle cx="24.5" cy="97.5" r="4.5" fill="#13D726"/>
</g>
<defs>
<filter id="filter0_d_1_90" x="0" y="0" width="120" height="120" filterUnits="userSpaceOnUse" color-interpolation-filters="sRGB">
<feFlood flood-opacity="0" result="BackgroundImageFix"/>
<feColorMatrix in="SourceAlpha" type="matrix" values="0 0 0 0 0 0 0 0 0 0 0 0 0 0 0 0 0 0 127 0" result="hardAlpha"/>
<feOffset dy="4"/>
<feGaussianBlur stdDeviation="25"/>
<feColorMatrix type="matrix" values="0 0 0 0 0 0 0 0 0 0 0 0 0 0 0 0 0 0 0.25 0"/>
<feBlend mode="normal" in2="BackgroundImageFix" result="effect1_dropShadow_1_90"/>
<feBlend mode="normal" in="SourceGraphic" in2="effect1_dropShadow_1_90" result="shape"/>
</filter>
</defs>
</svg>
