<svg width="140" height="140" viewBox="0 0 140 140" fill="none" xmlns="http://www.w3.org/2000/svg">
<g opacity="0.8">
<circle cx="4.5" cy="4.5" r="4.5" fill="#78B4FD"/>
<circle cx="51.5" cy="12.5" r="12.5" fill="#6AC5FB"/>
<circle cx="11.5" cy="51.5" r="4.5" fill="#13D726"/>
<path opacity="0.4" d="M40.0347 69.1745L40.3797 68.8125L40.3637 68.7973L40.3464 68.7835C37.9199 66.8492 34.544 66.971 32.2503 69.0774L32.239 69.0878L32.2284 69.0988L26.0223 75.5407C24.677 76.937 22.518 76.9246 21.1877 75.5129L21.1876 75.5129C19.8436 74.087 19.856 71.779 21.2141 70.3695L21.2094 70.3649C21.2141 70.3694 21.2141 70.3694 21.2141 70.3694L21.2143 70.3692L21.2152 70.3683L21.2187 70.3647L21.2323 70.3505L21.2856 70.2953L21.4879 70.0854L22.2101 69.336L24.4049 67.0591C25.2041 66.2301 26.0046 65.3998 26.6083 64.774C26.9101 64.4611 27.1626 64.1994 27.3411 64.0146C27.4227 63.9301 27.4859 63.8648 27.5309 63.8183C27.5894 63.7577 27.6171 63.7292 27.6142 63.7319L27.2705 63.3688M40.0347 69.1745L20.8238 75.8559C19.2969 74.236 19.3107 71.6244 20.854 70.0225C20.854 70.0225 27.2243 63.4125 27.2705 63.3688M40.0347 69.1745C40.3797 68.8125 40.3798 68.8126 40.38 68.8128L40.3808 68.8136L40.3842 68.8169L40.3979 68.8299L40.4517 68.8811L40.6615 69.0811L41.4579 69.8402L44.3012 72.55C46.6545 74.7929 49.793 77.7839 52.9337 80.7768C56.0744 83.7697 59.2173 86.7644 61.5794 89.0146C62.7604 90.1396 63.7463 91.0785 64.439 91.7379C64.7853 92.0676 65.0584 92.3274 65.2459 92.5057C65.4469 92.6967 65.5268 92.772 65.5155 92.7627C67.935 94.7705 70.8335 95.75 73.717 95.75C77.3354 95.7498 80.936 94.2069 83.5374 91.1999L83.5451 91.191L83.5452 91.1911L105.298 67.2138C106.616 65.7604 106.561 63.4532 105.178 62.0718L105.528 61.7217L105.178 62.0717C103.808 60.7035 101.65 60.758 100.345 62.1973L78.5569 86.2137L78.5563 86.2144C78.5343 86.2385 78.5126 86.263 78.4913 86.2878L78.4912 86.288C76.2694 88.879 72.4955 89.2484 69.8529 87.1428L69.8355 87.129L69.8195 87.1137L70.1645 86.7518C69.8195 87.1137 69.8194 87.1136 69.8192 87.1134L69.8183 87.1126L69.8149 87.1094L69.8013 87.0964L69.7475 87.0451L69.5377 86.8451L68.7412 86.086L65.898 83.3762C63.5447 81.1334 60.4062 78.1423 57.2655 75.1494C54.1248 72.1565 50.982 69.1618 48.6199 66.9117C47.4389 65.7866 46.4531 64.8477 45.7604 64.1883C45.414 63.8586 45.141 63.5988 44.9535 63.4206C44.8924 63.3625 44.8426 63.3152 44.803 63.2776C44.7115 63.1908 44.6753 63.1564 44.6841 63.1637M40.0347 69.1745L44.6841 63.1637M27.2705 63.3688C32.2709 58.6494 39.7289 58.4017 45.0039 62.7793M27.2705 63.3688L27.6136 63.7324C32.431 59.1858 39.6045 58.9486 44.6841 63.1637M45.0039 62.7793L44.6841 63.1637M45.0039 62.7793L44.6845 63.1641C44.6844 63.164 44.6842 63.1639 44.6841 63.1637M45.0039 62.7793L44.6841 63.1637M78.1117 85.9625C78.1362 85.9338 78.1612 85.9056 78.1866 85.8777L99.9742 61.8614C101.471 60.2114 103.959 60.1471 105.531 61.718C107.103 63.2888 107.165 65.8996 105.668 67.5497L83.9155 91.5271L78.1117 85.9625ZM119.812 58.312V69.449C119.812 71.474 118.254 73.0738 116.382 73.0738C114.51 73.0738 112.951 71.474 112.951 69.449V58.312C112.951 55.7844 110.986 53.6871 108.52 53.6871H97.9077C96.0354 53.6871 94.477 52.0873 94.477 50.0623C94.477 48.0373 96.0354 46.4375 97.9077 46.4375H108.52C114.724 46.4375 119.812 51.7418 119.812 58.312Z" stroke="white"/>
</g>
</svg>
